<svg xmlns="http://www.w3.org/2000/svg" xmlns:xlink="http://www.w3.org/1999/xlink" width="500" zoomAndPan="magnify" viewBox="0 0 375 374.999991" height="500" preserveAspectRatio="xMidYMid meet" version="1.0"><defs><g/><clipPath id="id1"><path d="M 8.550781 115 L 158.550781 115 L 158.550781 246.722656 L 8.550781 246.722656 Z M 8.550781 115 " clip-rule="nonzero"/></clipPath></defs><g fill="#dfae00" fill-opacity="1"><g transform="translate(155.968594, 167.720022)"><g><path d="M 4.546875 0 L 11.875 0 C 9.554688 -1.019531 8.535156 -2.410156 8.535156 -4.917969 L 8.535156 -42.023438 L 38.40625 0 L 38.40625 -40.539062 C 38.40625 -43.042969 39.425781 -44.4375 41.746094 -45.457031 L 34.417969 -45.457031 C 36.644531 -44.4375 37.664062 -43.042969 37.664062 -40.539062 L 37.664062 -14.007812 L 15.304688 -45.457031 L 5.660156 -45.457031 L 7.792969 -42.671875 L 7.792969 -4.917969 C 7.792969 -2.410156 6.773438 -1.019531 4.546875 0 Z M 4.546875 0 "/></g></g></g><g fill="#dfae00" fill-opacity="1"><g transform="translate(200.496099, 167.720022)"><g><path d="M 2.132812 -16.234375 C 2.132812 -7.234375 9.554688 0.09375 18.554688 0.09375 C 27.550781 0.09375 34.789062 -7.328125 34.789062 -16.234375 C 34.789062 -25.234375 27.460938 -32.5625 18.460938 -32.5625 C 9.460938 -32.5625 2.132812 -25.234375 2.132812 -16.234375 Z M 17.625 -31.632812 C 24.769531 -31.632812 26.902344 -20.316406 26.902344 -14.9375 C 26.902344 -10.296875 25.324219 -0.742188 19.109375 -0.742188 C 12.058594 -0.742188 9.742188 -12.058594 9.742188 -17.441406 C 9.742188 -22.171875 11.410156 -31.632812 17.625 -31.632812 Z M 17.625 -31.632812 "/></g></g></g><g fill="#dfae00" fill-opacity="1"><g transform="translate(238.06618, 167.720022)"><g><path d="M 10.296875 -24.953125 C 10.296875 -29.6875 9.183594 -32.46875 3.804688 -32.46875 L 3.804688 -7.144531 C 3.804688 -3.710938 4.175781 -1.578125 0.464844 0 L 13.542969 0 C 11.597656 -0.835938 10.203125 -2.226562 10.203125 -4.453125 L 10.296875 -23.097656 C 10.296875 -25.882812 15.121094 -27.921875 17.441406 -27.921875 C 19.757812 -27.921875 21.242188 -26.902344 22.914062 -25.417969 L 22.914062 -32.5625 C 18.460938 -32.5625 12.339844 -29.035156 10.296875 -24.953125 Z M 10.296875 -24.953125 "/></g></g></g><g fill="#dfae00" fill-opacity="1"><g transform="translate(263.391198, 167.720022)"><g><path d="M 13.636719 -37.941406 C 11.875 -34.417969 6.402344 -32.46875 2.78125 -32.46875 L 2.78125 -31.632812 L 7.144531 -31.632812 L 7.144531 -9.648438 C 7.144531 -4.546875 9.460938 0.09375 15.121094 0.09375 C 18.367188 0.09375 20.316406 -1.761719 21.800781 -4.453125 L 21.523438 -4.546875 C 20.6875 -3.152344 19.203125 -1.578125 17.441406 -1.578125 C 14.195312 -1.578125 13.636719 -6.03125 13.636719 -8.347656 L 13.636719 -31.632812 L 21.800781 -31.632812 L 21.800781 -32.46875 L 13.636719 -32.46875 Z M 13.636719 -37.941406 "/></g></g></g><g fill="#dfae00" fill-opacity="1"><g transform="translate(288.066856, 167.720022)"><g><path d="M 11.410156 -41.46875 C 11.410156 -42.488281 11.410156 -46.476562 13.082031 -46.476562 C 16.511719 -46.476562 19.757812 -45.269531 23.007812 -44.4375 L 23.007812 -51.394531 C 11.78125 -51.394531 4.917969 -40.445312 4.917969 -30.148438 L 4.917969 -7.144531 C 4.917969 -3.710938 5.289062 -1.578125 1.667969 0 L 14.65625 0 C 12.617188 -0.835938 11.410156 -2.132812 11.410156 -4.453125 L 11.410156 -23.46875 C 12.800781 -26.996094 15.863281 -31.355469 20.039062 -31.355469 C 23.933594 -31.355469 25.417969 -26.53125 25.417969 -23.46875 L 25.417969 -5.289062 C 25.417969 -0.742188 28.574219 0.183594 32.5625 0.183594 C 36.457031 0.183594 38.871094 -2.78125 39.332031 -6.492188 L 39.054688 -6.585938 C 38.683594 -4.546875 37.199219 -1.390625 34.789062 -1.390625 C 31.261719 -1.390625 31.726562 -7.976562 31.820312 -8.90625 L 31.820312 -18.089844 C 31.820312 -24.304688 31.449219 -32.839844 23.285156 -32.839844 C 18.273438 -32.839844 13.824219 -29.316406 11.410156 -25.140625 Z M 11.410156 -41.46875 "/></g></g></g><g fill="#dfae00" fill-opacity="1"><g transform="translate(323.688855, 167.720022)"><g><path d="M 4.359375 -42.210938 C 4.359375 -37.570312 9.648438 -38.960938 9.648438 -37.015625 C 9.648438 -36.085938 9.371094 -35.25 8.8125 -34.507812 L 9.277344 -34.046875 C 11.410156 -35.992188 12.894531 -38.683594 12.894531 -41.652344 C 12.894531 -44.4375 11.316406 -46.476562 8.347656 -46.476562 C 6.121094 -46.476562 4.359375 -44.34375 4.359375 -42.210938 Z M 4.359375 -42.210938 "/></g></g></g><g fill="#dfae00" fill-opacity="1"><g transform="translate(338.345829, 167.720022)"><g><path d="M 2.226562 -9.371094 L 2.226562 -1.667969 C 6.214844 -0.464844 10.203125 0.371094 14.378906 0.371094 C 20.128906 0.371094 25.882812 -2.132812 25.882812 -8.71875 C 25.882812 -19.386719 7.144531 -20.6875 7.144531 -26.53125 C 7.144531 -30.242188 9.554688 -32.28125 13.082031 -32.28125 C 18.089844 -32.28125 21.894531 -27.089844 24.304688 -23.285156 L 24.304688 -30.335938 C 20.964844 -31.820312 16.976562 -32.839844 13.359375 -32.839844 C 7.886719 -32.839844 2.691406 -29.6875 2.691406 -23.75 C 2.691406 -12.800781 19.945312 -13.359375 19.945312 -6.402344 C 19.945312 -1.855469 17.996094 -0.648438 13.824219 -0.648438 C 8.441406 -0.648438 4.082031 -4.546875 2.226562 -9.371094 Z M 2.226562 -9.371094 "/></g></g></g><g fill="#dfae00" fill-opacity="1"><g transform="translate(164.781094, 220.970018)"><g><path d="M 14.007812 -0.742188 L 14.007812 -40.539062 C 14.007812 -43.042969 14.9375 -44.4375 17.253906 -45.457031 L 3.152344 -45.457031 C 5.378906 -44.4375 6.402344 -43.042969 6.402344 -40.539062 L 6.402344 -6.402344 C 6.402344 -3.246094 6.308594 -1.390625 3.152344 0 L 30.890625 0 L 32.933594 -11.96875 C 29.871094 -3.339844 24.027344 -0.742188 15.398438 -0.742188 Z M 14.007812 -0.742188 "/></g></g></g><g fill="#dfae00" fill-opacity="1"><g transform="translate(200.124796, 220.970018)"><g><path d="M 7.976562 -35.621094 C 10.203125 -35.621094 11.78125 -37.199219 11.78125 -39.425781 C 11.78125 -41.652344 10.203125 -43.230469 7.976562 -43.230469 C 5.75 -43.230469 3.988281 -41.746094 3.988281 -39.425781 C 3.988281 -37.199219 5.75 -35.621094 7.976562 -35.621094 Z M 4.824219 -32.46875 L 4.824219 -7.050781 C 4.824219 -2.132812 7.050781 0.183594 11.96875 0.183594 C 15.863281 0.183594 18.183594 -2.875 18.738281 -6.492188 L 18.460938 -6.585938 C 17.996094 -4.546875 16.605469 -1.390625 14.195312 -1.390625 C 11.78125 -1.390625 11.316406 -4.636719 11.316406 -6.492188 L 11.226562 -26.066406 C 11.226562 -29.871094 8.628906 -32.46875 4.824219 -32.46875 Z M 4.824219 -32.46875 "/></g></g></g><g fill="#dfae00" fill-opacity="1"><g transform="translate(217.100903, 220.970018)"><g><path d="M 9.925781 -41.558594 C 9.925781 -42.582031 10.019531 -46.476562 11.6875 -46.476562 C 15.121094 -46.476562 18.367188 -45.269531 21.613281 -44.4375 L 21.613281 -51.394531 C 10.484375 -51.394531 3.433594 -40.539062 3.433594 -30.148438 L 3.433594 -7.144531 C 3.433594 -3.710938 3.804688 -1.578125 0.183594 0 L 13.171875 0 C 11.597656 -0.648438 10.113281 -1.667969 9.925781 -3.523438 C 12.523438 -0.835938 15.492188 0.371094 19.203125 0.371094 C 28.015625 0.277344 32.652344 -6.308594 32.652344 -14.65625 C 32.5625 -23.007812 27.460938 -32.746094 18.089844 -32.746094 C 15.027344 -32.746094 12.058594 -31.261719 9.925781 -29.128906 Z M 17.8125 -32.191406 C 24.398438 -32.191406 25.605469 -20.78125 25.605469 -15.863281 C 25.605469 -11.410156 24.582031 -0.09375 18.183594 -0.09375 C 11.78125 -0.09375 9.648438 -11.597656 9.648438 -16.328125 C 9.648438 -21.335938 11.039062 -32.191406 17.8125 -32.191406 Z M 17.8125 -32.191406 "/></g></g></g><g fill="#dfae00" fill-opacity="1"><g transform="translate(251.980776, 220.970018)"><g><path d="M 10.296875 -24.953125 C 10.296875 -29.6875 9.183594 -32.46875 3.804688 -32.46875 L 3.804688 -7.144531 C 3.804688 -3.710938 4.175781 -1.578125 0.464844 0 L 13.542969 0 C 11.597656 -0.835938 10.203125 -2.226562 10.203125 -4.453125 L 10.296875 -23.097656 C 10.296875 -25.882812 15.121094 -27.921875 17.441406 -27.921875 C 19.757812 -27.921875 21.242188 -26.902344 22.914062 -25.417969 L 22.914062 -32.5625 C 18.460938 -32.5625 12.339844 -29.035156 10.296875 -24.953125 Z M 10.296875 -24.953125 "/></g></g></g><g fill="#dfae00" fill-opacity="1"><g transform="translate(277.305794, 220.970018)"><g><path d="M 8.8125 -21.335938 C 8.8125 -21.800781 8.71875 -22.355469 8.71875 -22.820312 C 8.71875 -27.550781 11.597656 -32.191406 16.699219 -32.191406 C 19.574219 -32.191406 19.574219 -29.128906 19.574219 -26.996094 C 19.574219 -17.625 1.949219 -18.832031 1.949219 -8.164062 C 1.949219 -3.339844 5.566406 0.371094 10.484375 0.371094 C 15.585938 0.371094 19.203125 -3.617188 20.871094 -8.070312 C 20.871094 -2.691406 22.078125 0.183594 28.015625 0.183594 C 32.003906 0.183594 34.324219 -2.78125 34.789062 -6.492188 L 34.507812 -6.585938 C 34.136719 -4.546875 32.746094 -1.390625 30.242188 -1.390625 C 27.738281 -1.484375 27.367188 -4.730469 27.367188 -6.585938 L 27.367188 -20.78125 C 27.367188 -27.550781 24.953125 -32.746094 17.253906 -32.746094 C 10.667969 -32.746094 3.988281 -28.015625 2.691406 -21.335938 Z M 20.871094 -11.597656 C 20.871094 -7.605469 17.71875 -1.390625 13.082031 -1.390625 C 9.371094 -1.390625 8.257812 -5.289062 8.257812 -8.347656 C 8.257812 -18.925781 21.152344 -18.089844 20.128906 -27.550781 C 20.6875 -26.160156 20.871094 -24.769531 20.871094 -23.285156 Z M 20.871094 -11.597656 "/></g></g></g><g fill="#dfae00" fill-opacity="1"><g transform="translate(310.33035, 220.970018)"><g><path d="M 10.296875 -24.953125 C 10.296875 -29.6875 9.183594 -32.46875 3.804688 -32.46875 L 3.804688 -7.144531 C 3.804688 -3.710938 4.175781 -1.578125 0.464844 0 L 13.542969 0 C 11.597656 -0.835938 10.203125 -2.226562 10.203125 -4.453125 L 10.296875 -23.097656 C 10.296875 -25.882812 15.121094 -27.921875 17.441406 -27.921875 C 19.757812 -27.921875 21.242188 -26.902344 22.914062 -25.417969 L 22.914062 -32.5625 C 18.460938 -32.5625 12.339844 -29.035156 10.296875 -24.953125 Z M 10.296875 -24.953125 "/></g></g></g><g fill="#dfae00" fill-opacity="1"><g transform="translate(335.655368, 220.970018)"><g><path d="M 13.171875 -32.652344 L -1.019531 -32.652344 C 1.113281 -31.726562 2.78125 -29.871094 3.710938 -27.738281 L 15.675781 -0.925781 C 14.285156 2.320312 13.171875 6.585938 8.90625 6.585938 C 7.515625 6.585938 6.03125 6.214844 4.730469 5.75 L 4.730469 12.617188 C 8.8125 12.617188 12.152344 9.648438 13.730469 6.03125 L 28.292969 -27.738281 C 29.222656 -29.777344 30.707031 -31.726562 32.839844 -32.652344 L 25.511719 -32.652344 C 26.71875 -32.191406 27.644531 -31.167969 27.644531 -29.777344 C 27.644531 -27.273438 20.6875 -12.617188 19.109375 -8.90625 C 17.53125 -12.429688 10.574219 -27.273438 10.574219 -29.59375 C 10.574219 -31.167969 11.78125 -32.097656 13.171875 -32.652344 Z M 13.171875 -32.652344 "/></g></g></g><path fill="#003f88" d="M 48.335938 117.832031 C 47.527344 120.246094 47.695312 123.632812 46.503906 125.664062 C 46.488281 127.195312 46.78125 130.644531 45.195312 131.410156 C 45.039062 126.121094 46.023438 121.96875 46.765625 117.574219 C 47.410156 117.539062 48.027344 117.53125 48.335938 117.832031 Z M 48.335938 117.832031 " fill-opacity="1" fill-rule="evenodd"/><path fill="#003f88" d="M 35.25 123.316406 C 35.996094 123.746094 35.125 124.730469 34.988281 125.144531 C 34.320312 125.113281 34.46875 124.269531 34.464844 123.578125 L 34.945312 123.707031 Z M 35.25 123.316406 " fill-opacity="1" fill-rule="evenodd"/><path fill="#003f88" d="M 71.894531 124.359375 C 72.726562 124.726562 72.945312 126.441406 72.15625 126.972656 C 71.945312 126.832031 71.730469 126.699219 71.371094 126.710938 C 71.238281 125.621094 71.515625 124.941406 71.894531 124.359375 Z M 71.894531 124.359375 " fill-opacity="1" fill-rule="evenodd"/><path fill="#003f88" d="M 103.042969 134.542969 C 103.40625 136.246094 100.542969 135.65625 100.425781 134.804688 C 100.460938 133.597656 102.59375 133.976562 103.042969 134.542969 Z M 103.042969 134.542969 " fill-opacity="1" fill-rule="evenodd"/><path fill="#003f88" d="M 102.519531 136.109375 C 102.863281 137.070312 103.109375 138.128906 103.042969 139.503906 C 102.695312 140.03125 101.292969 140.292969 100.6875 139.765625 C 100.414062 138.535156 101.289062 138.449219 101.734375 137.9375 C 101.523438 137.1875 99.976562 137.773438 100.164062 136.632812 C 101.007812 136.515625 101.582031 136.128906 102.519531 136.109375 Z M 102.519531 136.109375 " fill-opacity="1" fill-rule="evenodd"/><path fill="#003f88" d="M 103.304688 147.597656 C 103.15625 149.195312 101.042969 148.355469 99.902344 148.121094 C 99.597656 146.328125 102.953125 146.492188 103.304688 147.597656 Z M 103.304688 147.597656 " fill-opacity="1" fill-rule="evenodd"/><path fill="#003f88" d="M 103.042969 149.945312 L 103.042969 151.253906 C 102.832031 151.476562 102.324219 151.40625 102.257812 151.773438 C 101.160156 151.648438 100.589844 151 100.6875 149.6875 C 101.292969 149.15625 102.695312 149.417969 103.042969 149.945312 Z M 103.042969 149.945312 " fill-opacity="1" fill-rule="evenodd"/><path fill="#003f88" d="M 103.042969 152.820312 C 103.488281 154.273438 101.261719 153.984375 100.6875 153.601562 L 100.6875 152.558594 C 101.210938 152.109375 102.808594 152.175781 103.042969 152.820312 Z M 103.042969 152.820312 " fill-opacity="1" fill-rule="evenodd"/><path fill="#003f88" d="M 145.445312 154.644531 C 144.695312 154.699219 144.015625 154.679688 144.136719 153.863281 C 144.859375 153.574219 145.605469 153.453125 145.445312 154.644531 Z M 145.445312 154.644531 " fill-opacity="1" fill-rule="evenodd"/><path fill="#003f88" d="M 102.78125 155.429688 C 102.769531 156.585938 100.792969 156.308594 100.425781 155.691406 C 100.328125 154.28125 102.511719 154.457031 102.78125 155.429688 Z M 102.78125 155.429688 " fill-opacity="1" fill-rule="evenodd"/><path fill="#003f88" d="M 102.257812 156.996094 C 102.410156 158.539062 101.351562 158.875 99.902344 158.824219 C 99.90625 158.207031 99.449219 158.054688 99.640625 157.257812 C 100.382812 156.855469 101.363281 156.539062 102.257812 156.996094 Z M 102.257812 156.996094 " fill-opacity="1" fill-rule="evenodd"/><path fill="#003f88" d="M 103.828125 163.785156 L 103.828125 165.351562 C 102.988281 165.8125 102.507812 165.855469 101.472656 165.609375 C 99.976562 164.066406 102.226562 162.835938 103.828125 163.785156 Z M 103.828125 163.785156 " fill-opacity="1" fill-rule="evenodd"/><path fill="#003f88" d="M 103.304688 167.179688 L 103.304688 168.746094 C 102.757812 169.257812 101.566406 168.945312 100.949219 168.746094 C 100.527344 166.957031 102.171875 166.648438 103.304688 167.179688 Z M 103.304688 167.179688 " fill-opacity="1" fill-rule="evenodd"/><path fill="#003f88" d="M 103.304688 170.832031 C 102.6875 171.414062 100.972656 171.636719 100.425781 170.832031 C 100.234375 169.363281 103.496094 169.363281 103.304688 170.832031 Z M 103.304688 170.832031 " fill-opacity="1" fill-rule="evenodd"/><path fill="#003f88" d="M 103.304688 172.660156 C 103.195312 173.925781 101.035156 174.039062 101.210938 172.398438 C 102.390625 172.351562 102.515625 172.078125 103.304688 172.660156 Z M 103.304688 172.660156 " fill-opacity="1" fill-rule="evenodd"/><path fill="#003f88" d="M 74.25 173.445312 C 74.894531 173.410156 75.511719 173.402344 75.820312 173.703125 C 75.910156 174.386719 73.765625 174.660156 74.25 173.445312 Z M 74.25 173.445312 " fill-opacity="1" fill-rule="evenodd"/><path fill="#003f88" d="M 20.328125 207.382812 C 21.058594 207.203125 21.4375 208.683594 20.851562 208.949219 C 19.90625 209.199219 20.488281 207.921875 20.328125 207.382812 Z M 20.328125 207.382812 " fill-opacity="1" fill-rule="evenodd"/><path fill="#003f88" d="M 21.375 208.949219 C 22.3125 208.800781 22.171875 209.722656 22.160156 210.515625 C 21.300781 210.558594 20.90625 209.449219 21.375 208.949219 Z M 21.375 208.949219 " fill-opacity="1" fill-rule="evenodd"/><path fill="#003f88" d="M 75.820312 210.777344 C 76.070312 211.71875 74.691406 211.242188 74.511719 211.039062 C 74.386719 210.527344 75.710938 210.199219 75.820312 210.777344 Z M 75.820312 210.777344 " fill-opacity="1" fill-rule="evenodd"/><path fill="#003f88" d="M 30.015625 222.265625 L 30.800781 222.265625 L 30.800781 223.308594 C 29.925781 223.570312 29.941406 222.949219 30.015625 222.265625 Z M 30.015625 222.265625 " fill-opacity="1" fill-rule="evenodd"/><path fill="#003f88" d="M 34.464844 229.316406 C 34.910156 229.21875 34.957031 229.519531 34.988281 229.835938 C 34.765625 229.789062 34.742188 229.9375 34.726562 230.097656 C 34.417969 230.054688 34.503906 229.621094 34.464844 229.316406 Z M 34.464844 229.316406 " fill-opacity="1" fill-rule="evenodd"/><path fill="#003f88" d="M 35.25 230.359375 C 36.28125 230.199219 36.410156 230.941406 36.558594 231.664062 L 35.25 231.664062 Z M 35.25 230.359375 " fill-opacity="1" fill-rule="evenodd"/><g clip-path="url(#id1)"><path fill="#003f88" d="M 127.648438 201.378906 L 127.648438 200.855469 C 127.128906 200.414062 126.011719 200.570312 125.289062 200.335938 C 125.164062 199.511719 125.664062 199.3125 125.8125 198.769531 C 125.027344 198.058594 124.648438 199.339844 123.457031 199.027344 C 123.730469 198.289062 123.730469 197.941406 123.457031 197.203125 L 121.363281 197.203125 C 121.296875 195.878906 120.804688 194.976562 119.007812 195.375 C 119.691406 194.4375 118.527344 193.539062 117.175781 193.808594 C 116.8125 193.472656 117.015625 192.574219 116.652344 192.242188 C 114.964844 192.007812 114.667969 190.394531 112.726562 190.414062 C 112.324219 189.507812 111.40625 189.117188 111.417969 187.804688 C 110.675781 187.582031 109.800781 187.5 109.0625 187.28125 C 108.355469 185.722656 107.792969 184.019531 105.398438 184.148438 C 105.207031 183.554688 105.164062 182.8125 104.875 182.320312 C 104.074219 182.132812 103.917969 182.585938 103.304688 182.582031 C 103.507812 182.347656 103.585938 181.992188 103.566406 181.539062 C 103.214844 181.015625 102.402344 180.957031 101.734375 180.753906 C 101.71875 179.460938 100.816406 179.058594 99.902344 178.664062 C 99.597656 177.855469 100.160156 177.226562 99.378906 176.578125 C 97.113281 176.898438 92.523438 178.226562 91.785156 175.011719 C 91.578125 174.089844 92.214844 173.777344 92.570312 172.398438 C 93.035156 170.617188 92.898438 167.378906 93.097656 165.609375 C 93.207031 164.632812 93.785156 163.761719 93.621094 162.738281 C 93.363281 161.144531 91.324219 159.765625 91.265625 158.039062 C 91.195312 156.050781 93.09375 154.496094 93.359375 152.558594 C 93.761719 149.613281 92.09375 147.269531 93.359375 144.464844 C 92.265625 142.296875 90.652344 140.945312 91 137.9375 C 91.101562 137.082031 91.851562 136.421875 92.046875 135.585938 C 92.34375 134.324219 92.691406 130.871094 92.570312 129.84375 C 92.332031 127.753906 90.144531 125.824219 90.476562 122.792969 C 90.558594 122.074219 90.988281 120.804688 91.523438 120.183594 C 92.140625 119.464844 94.515625 118.097656 95.714844 117.832031 C 97.816406 117.371094 100.464844 118.644531 102.78125 116.789062 C 105.484375 116.390625 108.542969 117.039062 111.679688 116.789062 C 112.457031 116.726562 113.246094 116.292969 114.035156 116.265625 C 114.535156 116.25 115.089844 116.753906 115.605469 116.789062 C 117.097656 116.886719 119.179688 116.257812 120.839844 116.265625 C 121.550781 116.269531 122.089844 116.59375 122.671875 116.527344 C 123.789062 116.398438 124.613281 115.828125 125.550781 115.742188 C 126.242188 115.679688 127.027344 116 127.90625 116.003906 C 133.113281 116.023438 140.828125 114.171875 143.613281 115.742188 C 146.636719 117.449219 143.816406 121.785156 144.136719 124.882812 C 144.71875 126.128906 146.5 126.179688 148.0625 126.449219 C 151.179688 128.527344 149.375 135.351562 149.371094 140.023438 C 149.371094 142.054688 150.03125 143.8125 149.632812 145.507812 C 150.972656 146.398438 152.097656 146.027344 153.820312 146.289062 C 154.257812 146.636719 153.910156 147.769531 154.34375 148.117188 C 155.980469 148.835938 157.152344 150.015625 158.535156 150.988281 C 158.417969 155.140625 154.320312 155.316406 150.679688 155.949219 C 149.835938 159.796875 149.632812 164.96875 149.632812 170.570312 C 149.632812 176.265625 151.496094 185.640625 147.800781 186.757812 C 147.160156 186.953125 146.445312 186.601562 145.445312 186.757812 C 141.664062 187.347656 135.1875 187.535156 129.480469 187.800781 C 126.585938 187.933594 123.71875 187.484375 121.363281 187.800781 C 119.882812 188 117.765625 188.285156 115.867188 188.324219 C 116.058594 190.117188 118.050781 190.800781 119.269531 191.71875 C 122.863281 194.417969 127.082031 197.277344 130.789062 200.332031 C 132.589844 200.621094 133.382812 201.917969 134.453125 202.945312 C 134.695312 207.921875 139.089844 208.757812 142.042969 211.039062 C 142.761719 212.613281 143.621094 214.539062 142.042969 215.738281 C 138.164062 217.117188 134.121094 217.40625 130 218.085938 C 129.160156 218.226562 128.441406 218.699219 127.644531 218.871094 C 126.25 219.175781 124.832031 218.96875 123.457031 219.394531 C 122.371094 219.730469 119.53125 220.976562 117.960938 221.21875 C 117.257812 221.332031 116.347656 221.054688 115.605469 221.21875 C 113.476562 221.691406 111.410156 222.917969 109.324219 223.308594 C 107.867188 223.582031 106.328125 223.265625 104.875 223.570312 C 103.589844 223.835938 102.222656 224.539062 100.945312 224.875 C 97.867188 225.691406 95.085938 226.144531 92.308594 227.226562 C 91.027344 227.496094 90.535156 226.054688 89.691406 226.703125 C 88.527344 226.761719 88.898438 228.347656 88.121094 228.792969 C 86.882812 229.464844 86.265625 229.695312 84.195312 230.097656 C 83.417969 230.246094 82.707031 230.855469 82.101562 230.878906 C 81.007812 230.921875 80.675781 230.359375 79.484375 230.097656 C 78.53125 229.886719 77.625 230.117188 76.867188 229.835938 C 75.8125 229.441406 75.117188 228.667969 74.25 228.269531 C 73.355469 228.339844 73.507812 229.445312 72.941406 229.835938 C 67.835938 232.230469 62.421875 234.316406 58.019531 237.40625 C 57.035156 237.207031 56.769531 237.726562 55.925781 237.667969 C 51.828125 240.105469 47.875 242.691406 42.839844 244.195312 C 41.285156 245.425781 39.453125 246.605469 37.34375 246.023438 C 35.398438 245.488281 34.175781 242.046875 32.890625 240.28125 C 32.285156 239.445312 31.222656 238.800781 30.535156 237.929688 C 29.558594 236.6875 28.769531 235.078125 27.917969 233.753906 C 26.953125 232.246094 25.960938 230.769531 25.5625 229.574219 C 25.183594 228.820312 24.304688 228.566406 23.730469 228.007812 C 20.457031 221.351562 15.59375 216.28125 12.214844 209.734375 C 10.785156 208.546875 9.53125 207.1875 8.550781 205.554688 C 8.804688 204.507812 8.871094 203.265625 8.8125 201.902344 C 9.550781 200.640625 11.371094 200.945312 12.476562 200.335938 C 13.886719 199.550781 14.15625 198.644531 14.832031 197.203125 C 22.046875 195.351562 27.984375 192.21875 33.152344 188.324219 C 32.253906 181.035156 26.167969 176.449219 28.179688 167.960938 C 26.699219 161.265625 28.320312 154.15625 27.394531 147.335938 C 26.832031 143.195312 26.949219 136.433594 26.347656 131.410156 C 26.191406 130.09375 26.132812 129.058594 26.085938 127.492188 C 26.074219 127.054688 25.613281 126.613281 25.5625 126.1875 C 25.269531 123.726562 25.640625 121.019531 25.824219 118.617188 C 27.140625 117.363281 30.71875 117.679688 32.105469 118.617188 C 33.621094 118.128906 35.0625 117.5625 37.339844 117.832031 C 38.613281 124.132812 40.558594 129.765625 41.003906 136.894531 L 40.527344 136.761719 L 40.21875 137.152344 C 39.828125 137.050781 39.773438 136.804688 39.695312 136.371094 C 38.964844 132.222656 38.585938 127.253906 36.292969 124.359375 C 36.332031 122.929688 36.320312 121.546875 36.03125 120.445312 C 35.191406 119.945312 34.480469 119.898438 33.414062 120.183594 C 32.722656 121.40625 33.664062 124.261719 32.628906 125.144531 C 33.4375 127.558594 34.339844 129.878906 34.460938 132.976562 C 34.582031 133.8125 35.457031 133.894531 35.507812 134.804688 C 35.160156 138.109375 37.703125 138.53125 37.863281 141.332031 C 39.203125 141.300781 39.859375 143.050781 41.003906 142.375 C 41.222656 141.296875 40.632812 138.972656 40.480469 137.414062 L 40.949219 137.507812 L 41.265625 137.15625 C 42.484375 137.070312 41.722656 138.960938 42.3125 139.503906 C 43.5625 137.539062 41.882812 134.140625 42.574219 131.671875 L 42.707031 132.0625 L 43.097656 131.933594 C 47.023438 132.867188 43.429688 137.363281 44.667969 139.503906 C 46.492188 139.199219 44.847656 136.789062 46.238281 136.371094 C 46.394531 135.832031 45.914062 134.65625 46.5 134.542969 L 46.804688 134.933594 L 47.285156 134.804688 C 46.878906 136.601562 47.75 137.125 48.59375 137.675781 C 47.757812 139.3125 47.132812 141.371094 48.070312 143.421875 C 44.441406 144.703125 37.492188 145.003906 35.507812 142.375 C 34.898438 139.679688 34.265625 136.996094 33.152344 134.804688 C 32.988281 131.738281 31.613281 128.710938 31.058594 125.667969 C 30.671875 123.566406 30.976562 121.199219 29.488281 119.664062 C 27.410156 120.984375 29.480469 123.460938 29.75 125.40625 C 29.847656 126.121094 29.605469 127.011719 29.75 127.753906 C 29.914062 128.621094 30.4375 129.789062 30.792969 131.148438 C 32.183594 136.449219 32.792969 145.152344 37.863281 146.292969 C 41.578125 147.128906 46.113281 145.96875 49.117188 144.988281 C 51.132812 135.507812 54.640625 127.523438 56.96875 118.355469 C 54.15625 118.945312 54.695312 122.875 53.042969 124.621094 C 52.226562 127.898438 51.164062 130.929688 49.902344 133.761719 L 49.71875 133.316406 L 49.378906 132.976562 C 49.195312 131.664062 49.824219 131.15625 49.640625 129.84375 C 49.910156 129.589844 50.171875 129.328125 50.425781 129.0625 C 51.625 124.773438 52.863281 120.523438 54.613281 116.789062 C 56.195312 116.402344 57.664062 116.609375 58.539062 117.574219 C 58.605469 121.847656 57.0625 125.800781 58.015625 130.105469 C 57.558594 130.34375 57.539062 131.019531 57.230469 131.410156 C 57.878906 140.835938 56.851562 151.949219 57.230469 162.21875 C 57.382812 166.363281 58.988281 170.945312 58.277344 174.75 C 58.136719 175.503906 57.578125 175.765625 57.230469 176.578125 C 56.476562 178.347656 55.953125 180.816406 55.136719 182.582031 C 55.683594 183.515625 57.632812 183.050781 58.277344 183.886719 C 60.488281 182.871094 61.027344 180.1875 63.25 179.1875 C 62.027344 176.664062 63.265625 172.328125 62.464844 169.527344 C 62.160156 168.449219 61.140625 168.191406 61.15625 167.179688 C 62.402344 163.027344 61.042969 159.566406 61.15625 154.644531 C 60.460938 153.6875 59.734375 152.757812 59.324219 151.511719 C 60.292969 148.910156 60.855469 146.316406 60.371094 143.160156 C 60.09375 141.355469 58.933594 140.226562 59.0625 138.71875 C 59.195312 137.125 60.492188 136.332031 61.15625 135.066406 C 61.390625 133.734375 61.5 132.273438 62.464844 131.671875 L 62.464844 129.582031 C 63.414062 128.269531 63.359375 125.949219 64.558594 124.882812 C 64.882812 122.421875 65.542969 120.292969 66.914062 118.878906 L 66.914062 117.050781 C 67.820312 115.789062 70.804688 115.132812 72.148438 116.527344 C 72.484375 117.757812 72.492188 119.316406 73.457031 119.921875 C 75.0625 120.375 76.136719 119.507812 77.382812 119.398438 C 77.863281 119.359375 78.359375 119.863281 78.953125 119.660156 C 81.445312 118.8125 82.535156 115.277344 85.238281 118.09375 C 84.597656 126.035156 85.359375 133.496094 85.238281 140.808594 C 85.210938 142.414062 84.839844 143.425781 84.976562 144.984375 C 85.144531 146.960938 84.820312 148.878906 84.976562 150.988281 C 85.105469 152.753906 85.648438 154.535156 85.761719 156.472656 C 85.972656 160.121094 85.375 163.976562 85.761719 167.175781 C 86.023438 169.363281 87.515625 171.886719 86.546875 175.007812 C 87.277344 176.160156 90.453125 174.273438 90.996094 176.050781 C 89.609375 178.433594 86.914062 176.421875 84.714844 176.3125 C 77.980469 175.976562 70.957031 178.457031 65.082031 179.96875 C 62.347656 180.984375 61.203125 183.582031 59.847656 185.972656 C 60.074219 187.507812 61.890625 187.820312 62.726562 188.84375 C 63.285156 189.527344 63.296875 190.433594 63.773438 191.195312 C 64.835938 192.890625 66.34375 194.726562 67.699219 196.417969 C 69.078125 198.132812 70.152344 199.976562 71.363281 201.636719 C 72.191406 202.773438 73.335938 203.878906 74.242188 205.03125 C 75.199219 206.246094 75.933594 207.539062 76.863281 208.6875 C 78.058594 210.164062 79.253906 211.722656 80.527344 213.644531 C 80.746094 214.382812 80.828125 215.257812 81.050781 215.996094 C 82.941406 216.265625 83.023438 214.183594 83.929688 213.386719 C 84.902344 212.527344 86.171875 212.605469 87.070312 211.558594 C 88.460938 211.464844 89.824219 211.347656 90.734375 210.773438 L 90.863281 211.164062 L 90.996094 211.558594 C 90.925781 212.847656 93.441406 212.972656 93.613281 211.816406 C 93.03125 211.613281 92.59375 211.269531 91.78125 211.296875 L 91.910156 210.816406 L 91.519531 210.511719 C 103.496094 208.160156 119.980469 208.820312 129.734375 203.464844 L 129.863281 203.855469 L 130.257812 203.722656 C 130.171875 204.328125 130.300781 204.726562 130.519531 205.03125 C 132.078125 205.414062 132.300781 203.273438 130.519531 203.722656 L 130.648438 203.246094 L 130.257812 202.941406 C 130.347656 202.597656 130.71875 202.53125 130.78125 202.15625 C 130.324219 201.035156 129.089844 201.535156 127.902344 201.632812 L 128.035156 201.242188 Z M 139.949219 122.535156 C 140.0625 122.125 140.773438 122.308594 140.472656 121.488281 C 134.230469 120.253906 127.105469 122.257812 120.578125 122.273438 C 117.015625 122.28125 111.964844 122.242188 108.015625 123.316406 C 107.46875 123.167969 107.269531 122.667969 106.445312 122.796875 C 105.203125 123.207031 103.925781 123.585938 102.519531 123.839844 C 101.1875 123.277344 100.011719 122.816406 98.59375 123.578125 C 98.277344 126.980469 102.054688 126.667969 104.089844 125.667969 C 104.648438 129.433594 98.957031 127.03125 96.761719 126.710938 C 96.042969 125.390625 94.914062 125.144531 95.191406 123.316406 C 95.769531 119.476562 103.089844 122.496094 105.136719 120.183594 C 109.089844 119.640625 114.246094 120.714844 118.488281 119.921875 C 121.472656 119.367188 126.144531 119.335938 130.265625 118.878906 C 131.863281 118.703125 134.347656 119.183594 133.40625 116.789062 C 131.0625 117.382812 128.691406 117.394531 125.03125 117.574219 C 121.953125 117.722656 118.230469 117.585938 115.34375 118.097656 C 114.71875 118.207031 114.359375 118.570312 113.773438 118.617188 C 110.78125 118.863281 107.820312 118 105.398438 118.355469 C 104.234375 118.527344 103.253906 119.53125 102.257812 119.664062 C 101.046875 119.820312 99.765625 119.113281 98.59375 119.140625 C 95.589844 119.214844 92.382812 121.246094 92.3125 123.578125 C 92.273438 124.84375 93.757812 126.054688 94.144531 127.757812 C 94.601562 129.773438 94.671875 132.996094 94.144531 135.328125 C 93.699219 137.296875 92.011719 138.402344 93.097656 141.070312 C 94.039062 141.390625 94.585938 142.488281 95.714844 142.898438 C 98.230469 143.816406 102.0625 142.949219 103.304688 144.726562 C 103.429688 145.546875 102.980469 145.796875 102.519531 146.035156 C 99.949219 145.140625 98.535156 145.742188 95.453125 144.988281 C 94.464844 146.816406 95.445312 150.339844 95.453125 152.820312 C 94.667969 154.738281 93.070312 155.84375 93.359375 158.828125 C 94.65625 159.414062 95.730469 160.640625 97.808594 160.914062 C 99.757812 161.171875 102.449219 159.710938 103.042969 161.4375 C 101.789062 163.707031 97.929688 162.570312 95.453125 162.480469 C 95.320312 165.421875 95.289062 169.257812 94.667969 172.402344 C 94.300781 173.171875 93.289062 173.289062 93.359375 174.492188 C 94.5625 176.492188 97.566406 174.902344 99.378906 174.492188 C 100.792969 175.386719 101.867188 174.960938 102.78125 174.753906 C 102.820312 175.402344 102.371094 175.558594 102.257812 176.058594 C 103.171875 178.367188 104.613281 180.144531 106.96875 181.019531 C 107.84375 183.105469 110.058594 183.851562 111.417969 185.457031 C 119.175781 186.625 127.71875 184.785156 136.546875 185.195312 C 137.007812 184.316406 136.371094 183.855469 136.546875 182.585938 C 138.203125 180.84375 141.53125 180.765625 143.089844 178.929688 C 143.316406 177.761719 143.488281 176.539062 144.136719 175.796875 C 144.878906 175.578125 145.753906 175.492188 146.496094 175.273438 C 146.640625 174.074219 146.664062 173.527344 147.542969 172.664062 C 147.515625 171.992188 146.519531 172.289062 146.496094 171.617188 C 146.757812 171.097656 147.652344 171.207031 147.542969 170.3125 C 147.261719 169.808594 146.335938 169.949219 145.972656 169.53125 C 147.9375 168.910156 146.578125 166.503906 147.542969 165.089844 C 147.199219 164.472656 145.878906 164.835938 145.972656 163.785156 C 146.316406 163.519531 146.9375 163.53125 147.277344 163.261719 C 145.738281 161.699219 147.625 161.457031 147.800781 159.609375 C 147.464844 159.074219 146.332031 159.332031 146.230469 158.5625 C 146.945312 157.972656 148.226562 157.945312 147.800781 156.214844 C 145.402344 155.578125 146.285156 160.199219 143.613281 160.128906 C 142.527344 158.695312 141.035156 157.65625 139.949219 156.214844 C 140.054688 154.046875 141.265625 151.730469 140.210938 149.949219 C 141.238281 147.472656 143.019531 145.019531 146.496094 145.773438 L 146.363281 146.164062 L 146.757812 146.292969 C 146.761719 146.988281 146.609375 147.832031 147.28125 147.859375 C 147.484375 147.679688 147.863281 146.40625 147.28125 146.292969 L 147.410156 145.902344 L 147.019531 145.773438 C 147.019531 145.253906 147.730469 145.441406 147.542969 144.730469 C 147.675781 143.636719 146.339844 144.011719 145.972656 143.421875 C 146.316406 142.761719 147.925781 142.429688 147.019531 141.335938 C 146.617188 139.992188 143.230469 141.632812 142.828125 140.289062 C 143.035156 139.363281 144.273438 139.464844 144.925781 138.984375 L 145.316406 139.117188 L 145.445312 138.722656 C 146.507812 139.015625 146.742188 137.921875 146.230469 137.417969 L 146.625 137.113281 L 146.496094 136.636719 C 147.746094 134.972656 147.554688 131.394531 147.542969 130.109375 C 145.777344 130.59375 142.03125 129.402344 139.425781 130.109375 C 139.640625 131.636719 141.84375 131.179688 143.089844 131.675781 C 146.492188 136.636719 146.101562 136.941406 146.101562 136.941406 L 146.230469 137.417969 C 145.6875 137.574219 145.339844 137.921875 145.183594 138.460938 L 144.792969 138.332031 L 144.660156 138.722656 C 143.597656 138.824219 142.839844 138.628906 142.828125 137.679688 C 142.964844 136.769531 144.402344 137.160156 144.136719 135.851562 C 142.949219 134.785156 142.789062 133.445312 140.996094 132.71875 C 140.261719 132.421875 138.960938 132.976562 138.117188 132.457031 C 137.425781 132.03125 137.84375 131.199219 137.070312 130.628906 C 134.355469 130.519531 131.039062 131.125 127.910156 130.628906 C 127.449219 130.558594 126.839844 130.117188 126.339844 130.109375 C 125.257812 130.085938 124.070312 130.554688 122.9375 130.628906 C 117.9375 130.96875 110.675781 130.757812 106.707031 130.109375 C 106.128906 130.574219 105.644531 131.136719 104.351562 130.890625 C 103.8125 134.074219 99.949219 133.359375 98.855469 131.152344 C 97.078125 131.621094 95.875 130.417969 96.761719 129.0625 C 98.320312 129.136719 99.800781 130.328125 101.734375 130.109375 C 103.152344 129.949219 104.246094 128.5625 105.660156 128.28125 C 108.878906 127.640625 113.269531 128.15625 117.175781 128.28125 C 124.121094 128.5 130.988281 128.6875 137.332031 128.800781 C 137.875 127.824219 136.949219 127.453125 136.546875 126.714844 C 129.488281 126.285156 118.074219 127.402344 109.0625 126.453125 C 107.941406 126.335938 106.195312 127.355469 106.445312 125.148438 C 115.085938 126.015625 126.90625 124.945312 135.761719 125.148438 C 136.597656 125.167969 137.324219 125.632812 138.117188 125.667969 C 138.832031 125.703125 139.769531 124.824219 140.734375 125.667969 C 141.140625 125.289062 140.964844 124.332031 140.996094 123.582031 C 140.785156 123.441406 140.570312 123.308594 140.210938 123.320312 L 140.339844 122.839844 Z M 135.5 117.574219 C 136.390625 118.605469 141.03125 119.007812 141.519531 117.3125 C 140.195312 116.796875 136.570312 116.375 135.5 117.574219 Z M 73.988281 141.070312 C 73.007812 142.789062 68.609375 141.097656 67.183594 142.375 C 65.328125 141.816406 63.113281 141.363281 62.996094 139.242188 C 62.953125 138.445312 64.050781 137.277344 64.566406 135.847656 C 65.597656 132.980469 66.5625 127.734375 67.96875 124.363281 C 68.246094 123.691406 68.839844 123.324219 69.015625 122.796875 C 69.296875 121.941406 69.039062 121.28125 69.277344 120.707031 C 69.675781 119.738281 71.082031 118.96875 70.0625 117.3125 C 69.515625 116.703125 68.542969 117.871094 67.96875 118.09375 C 66.667969 124.371094 63.5 128.78125 62.730469 135.585938 C 61.539062 137.117188 60.292969 138.871094 61.421875 141.332031 C 62.8125 142.429688 64.945312 143.679688 67.445312 143.941406 C 68.667969 144.070312 70.265625 143.433594 71.109375 144.203125 C 69.847656 146.289062 64.296875 145.125 62.472656 144.464844 C 61.683594 146.960938 62.117188 149.453125 61.425781 152.296875 C 61.691406 153.246094 62.660156 153.5 62.996094 154.386719 C 62.371094 157.414062 64.386719 161.519531 63.78125 164.566406 C 63.589844 165.511719 62.460938 165.921875 62.734375 166.917969 C 65.808594 168.746094 64.417969 175.589844 64.828125 178.664062 C 67.894531 177.894531 69.933594 176.097656 73.988281 176.316406 C 74.523438 175.367188 76.144531 175.507812 76.867188 174.75 C 76.527344 173.957031 76.757812 172.597656 76.082031 172.136719 L 76.476562 171.832031 L 76.34375 171.355469 C 76.800781 171.117188 77.253906 170.867188 77.128906 170.050781 C 74.601562 169.75 71.253906 171.777344 69.015625 169.527344 C 70.191406 167.867188 72.871094 169.070312 74.773438 168.746094 C 76.792969 168.398438 77.605469 167.066406 78.960938 166.65625 C 79.03125 165.457031 79.238281 165.394531 78.960938 164.304688 C 78.394531 164.085938 78.070312 163.628906 77.128906 163.785156 C 77.410156 162.113281 75.066406 163.058594 75.035156 161.695312 C 75.960938 161.226562 77.800781 161.667969 77.652344 160.128906 C 77.367188 160.0625 77.476562 159.609375 77.128906 159.605469 L 77.261719 159.128906 L 76.867188 158.824219 C 77.132812 158.300781 78.027344 158.410156 77.914062 157.519531 C 78.039062 156.613281 76.492188 157.367188 76.34375 156.734375 C 76.253906 155.828125 77.675781 155.742188 76.867188 154.90625 C 74.601562 155.523438 67.890625 157.027344 66.921875 154.125 C 67.695312 152.972656 69.132812 153.832031 70.324219 153.863281 C 73.671875 153.945312 77.199219 153.664062 78.960938 152.035156 L 78.960938 149.945312 C 78.371094 149.488281 77 149.8125 76.605469 149.164062 C 75.917969 148.480469 77.132812 148.363281 77.128906 147.597656 C 76.308594 147.71875 76.0625 147.269531 75.820312 146.8125 C 76.679688 146.167969 78.46875 145.726562 77.652344 144.203125 C 76.25 143.960938 75.011719 145.980469 73.988281 144.460938 C 75.164062 142.414062 78.625 142.644531 78.960938 139.761719 C 79.0625 138.617188 78.214844 138.417969 78.175781 137.414062 C 78.933594 135.121094 79.019531 132.160156 80.269531 130.363281 C 80.132812 125.601562 83.820312 123.300781 83.152344 118.875 C 81.785156 118.457031 81.261719 120.941406 80.792969 122.269531 L 80.488281 121.878906 L 80.007812 122.011719 C 79.5 119.703125 77.5625 122.828125 76.082031 121.226562 C 75.96875 121.460938 75.855469 121.695312 75.558594 121.75 L 75.558594 122.273438 L 75.167969 122.140625 L 75.035156 122.53125 C 74.230469 122.726562 74.71875 121.632812 73.726562 122.011719 L 73.421875 121.617188 L 72.941406 121.75 L 72.941406 120.964844 C 72.554688 120.828125 72.28125 120.578125 71.894531 120.445312 C 69.308594 126.304688 67.695312 133.140625 65.351562 139.242188 C 66.566406 141.613281 70.859375 140.511719 73.726562 140.285156 L 73.632812 140.75 Z M 139.425781 128.015625 C 140.746094 128.742188 145.121094 129.566406 146.230469 128.015625 C 144.429688 126.636719 140.753906 128.105469 139.425781 126.710938 Z M 28.96875 139.503906 C 29.707031 148.347656 29.675781 155.660156 30.015625 163.785156 C 30.042969 164.496094 30.324219 165.410156 30.277344 166.132812 C 30.21875 166.964844 29.75 167.699219 29.75 168.484375 C 29.757812 169.328125 30.050781 171.820312 30.277344 172.921875 C 30.816406 175.585938 32.375 178.183594 33.15625 179.96875 C 33.769531 181.378906 33.613281 183.152344 34.988281 183.886719 C 35.984375 182.042969 35.03125 180.414062 35.25 177.882812 C 34.121094 176.890625 33.238281 175.953125 33.15625 174.488281 C 33.082031 173.234375 34 172.296875 34.203125 170.832031 C 34.523438 168.457031 33.386719 165.847656 34.203125 163.523438 C 33.765625 162.515625 33.046875 161.800781 32.890625 160.648438 C 32.679688 159.046875 33.511719 157.789062 33.675781 156.210938 C 33.890625 154.1875 33.433594 151.9375 33.152344 150.46875 C 32.695312 148.042969 31.921875 147.097656 31.582031 145.246094 C 31.417969 144.335938 31.683594 143.300781 31.582031 142.375 C 31.363281 140.375 30.445312 138.53125 30.011719 136.628906 C 29.792969 135.667969 30.015625 134.664062 29.75 133.757812 C 29.550781 133.070312 28.875 132.40625 28.703125 131.667969 C 28.46875 130.636719 29.082031 129.378906 28.179688 128.535156 C 27.175781 132.757812 28.6875 136.140625 28.96875 139.503906 Z M 80.007812 142.636719 C 80.230469 143.375 81.207031 143.355469 81.316406 144.203125 C 81.042969 145.496094 80.351562 146.375 80.007812 147.597656 C 80.34375 148.304688 81.277344 148.417969 81.578125 149.164062 C 81.195312 150.257812 81.246094 151.789062 81.054688 153.078125 C 81.117188 153.886719 82.355469 153.519531 82.101562 154.644531 C 81.902344 155.316406 81.265625 155.550781 80.269531 155.429688 L 80.269531 156.996094 C 81.53125 157.382812 80.8125 155.796875 81.839844 155.949219 C 81.421875 158.199219 81.859375 158.703125 82.886719 159.867188 C 82.625 161.917969 80.265625 166.558594 82.886719 167.4375 C 83.421875 164.703125 85.269531 160.261719 83.148438 158.039062 C 83.988281 155.457031 82.960938 153.425781 82.101562 151.773438 C 82.539062 150.554688 83.367188 149.730469 83.410156 148.117188 C 81.457031 146.511719 82.933594 143.699219 83.410156 141.589844 C 83.097656 140.769531 82.425781 140.308594 82.363281 139.242188 C 82.304688 137.703125 83.398438 137.3125 83.148438 135.585938 C 80.460938 135.28125 81.042969 140.429688 80.007812 142.636719 Z M 53.046875 144.464844 C 54.511719 144.269531 54.386719 142.488281 54.617188 141.070312 C 54.230469 140.933594 53.957031 140.683594 53.570312 140.546875 C 52.585938 141.050781 52.140625 143.660156 53.046875 144.464844 Z M 50.691406 148.117188 C 52.292969 148.816406 53.109375 149.710938 53.046875 151.511719 C 54.644531 151.3125 55.285156 148.941406 54.617188 147.335938 C 53.734375 147.234375 54.207031 148.492188 53.046875 148.117188 C 52.441406 147.679688 53.300781 145.777344 52 146.03125 C 51.464844 146.628906 50.820312 147.117188 50.691406 148.117188 Z M 45.457031 150.207031 C 45.796875 149.414062 47.113281 149.59375 46.765625 148.117188 C 42.082031 148.839844 37.097656 148.871094 34.464844 146.292969 C 33.785156 147.363281 34.753906 148.691406 35.25 149.425781 C 35.707031 152.589844 35.667969 157.015625 34.988281 159.867188 C 35.195312 160.441406 36.21875 160.207031 36.296875 160.910156 C 35.738281 166.066406 36.667969 170.074219 35.25 174.75 C 36.355469 175.53125 36.886719 176.289062 37.082031 177.621094 C 37.167969 178.1875 36.617188 178.621094 36.558594 179.1875 C 36.351562 181.214844 37.257812 183.761719 36.820312 185.972656 C 38.199219 186.128906 39.070312 185.78125 40.222656 185.714844 C 41.269531 183.710938 44.667969 184.054688 45.984375 182.320312 C 47.121094 183.4375 48.316406 180.976562 46.769531 180.753906 L 46.898438 180.363281 L 46.769531 179.96875 C 46.777344 179.714844 47.089844 179.769531 47.292969 179.710938 C 48.074219 178.898438 46.441406 179.023438 46.507812 178.144531 C 47.09375 177.683594 48.386719 177.929688 48.339844 176.835938 C 46 175.757812 41.863281 178.640625 40.75 175.792969 C 43.925781 174.878906 52.246094 175.78125 49.386719 171.355469 C 47.8125 171.007812 46.410156 172.203125 45.460938 171.617188 C 45.023438 169.699219 47.589844 170.78125 47.554688 169.265625 C 46.84375 168.359375 45.039062 169.984375 45.199219 168.484375 C 45.5 167.476562 47.859375 168.523438 47.816406 167.175781 C 47.164062 165.871094 45.03125 167.660156 44.414062 166.394531 C 44.722656 165.394531 46.503906 165.867188 47.292969 165.351562 L 47.292969 164.042969 C 45.460938 163.871094 44.808594 164.871094 42.84375 164.566406 C 41.652344 163.339844 39.066406 164.730469 38.394531 162.738281 C 40.75 161.75 45.90625 163.226562 48.339844 161.695312 C 48.703125 160.867188 48.703125 159.390625 48.339844 158.5625 C 47.640625 158.210938 46.328125 158.476562 45.984375 157.777344 C 45.730469 156.566406 47.546875 157.425781 47.292969 156.210938 C 46.210938 155.1875 45.289062 157.582031 44.152344 156.472656 C 43.804688 154.5625 46.445312 155.625 46.507812 154.125 C 46.085938 152.789062 43.480469 154.941406 43.367188 153.078125 C 44.484375 152.570312 48.128906 152.09375 45.722656 150.46875 L 45.722656 150.207031 Z M 142.566406 149.945312 C 143.875 152.058594 141.511719 156.511719 144.921875 156.734375 C 146.675781 152.84375 153.296875 155.367188 155.652344 152.035156 C 155.085938 151.382812 154.074219 151.175781 153.820312 150.207031 C 151.308594 151.195312 146.917969 150.808594 145.445312 149.164062 C 145.140625 148.675781 145.753906 147.546875 144.660156 147.335938 C 143.832031 148.078125 143.011719 148.824219 142.566406 149.945312 Z M 149.894531 147.597656 C 149.660156 149.046875 150.625 149.308594 151.988281 149.164062 L 151.988281 147.597656 C 151.609375 147.214844 150.277344 147.214844 149.894531 147.597656 Z M 53.046875 155.691406 C 52.527344 155.429688 53.558594 153.644531 52.785156 153.078125 C 52.578125 152.941406 52.363281 152.804688 52 152.820312 C 51.214844 153.417969 51.324219 156.039062 51.738281 156.996094 C 52.347656 157.078125 52.746094 156.953125 53.050781 156.734375 L 53.179688 157.125 L 53.570312 157.257812 L 53.570312 157.519531 C 54.078125 157.625 53.777344 158.53125 54.617188 158.300781 C 55.667969 157.667969 54.753906 156.378906 54.878906 155.167969 L 54.09375 155.167969 C 54.136719 155.472656 54.039062 155.632812 53.832031 155.691406 L 53.441406 155.429688 Z M 52.785156 163.261719 C 53.460938 162.628906 53.78125 161.644531 53.832031 160.390625 C 52.003906 158.898438 50.652344 163.101562 52.785156 163.261719 Z M 53.046875 166.132812 C 52.230469 166.890625 51.9375 168.867188 53.046875 169.527344 C 54.375 169.355469 55.070312 165.980469 53.046875 166.132812 Z M 53.046875 173.703125 C 54.339844 173.949219 54.863281 173.425781 54.617188 172.136719 C 53.523438 171.128906 52.035156 172.613281 53.046875 173.703125 Z M 147.539062 177.097656 C 147.203125 177.082031 147.175781 176.765625 146.753906 176.839844 C 145.085938 178.648438 144.265625 181.078125 142.042969 182.320312 C 140.875 182.972656 138.296875 182.636719 138.640625 184.933594 C 140.601562 185.757812 144.796875 184.992188 147.277344 184.671875 C 147.828125 182.609375 147.410156 179.578125 147.539062 177.097656 Z M 52.523438 179.972656 C 52.910156 179.558594 53.066406 177.898438 52 178.144531 C 51.496094 178.679688 51.652344 180.023438 52.523438 179.972656 Z M 46.503906 224.875 C 52.738281 221.871094 58.449219 218.339844 65.089844 215.738281 C 68.996094 214.8125 74.25 213.15625 78.699219 214.433594 C 78.992188 212.402344 77.132812 212.515625 76.34375 211.5625 C 76.199219 210.519531 76.199219 210.773438 76.34375 209.734375 C 75.761719 208.835938 73.53125 209.582031 72.679688 208.949219 C 72.523438 207.839844 74.09375 208.445312 73.726562 207.121094 C 73.019531 206.523438 70.859375 207.371094 70.585938 206.339844 C 70.410156 205.207031 71.902344 205.738281 71.632812 204.511719 C 71.34375 203.582031 69.738281 203.964844 69.015625 203.46875 C 68.921875 202.5625 70.34375 202.476562 69.539062 201.640625 C 68.289062 201.34375 66.789062 202.703125 66.917969 200.855469 C 67.257812 200.234375 68.621094 200.636719 68.753906 199.8125 C 68.023438 198.363281 65.035156 199.167969 64.300781 197.722656 C 64.644531 197.105469 65.71875 197.21875 66.394531 196.941406 C 65.742188 194.578125 62.339844 196.558594 61.683594 194.328125 C 62.488281 194.125 64.234375 193.929688 63.515625 193.023438 C 63.152344 192.257812 61.003906 193.265625 60.636719 192.5 C 60.550781 191.371094 62.089844 191.859375 61.945312 190.675781 C 61.453125 189.050781 58.484375 190.8125 58.28125 189.367188 C 58.429688 188.5625 59.683594 188.851562 59.328125 187.542969 C 58.125 187.523438 57.007812 187.421875 56.1875 187.019531 C 56.335938 186.378906 57.199219 186.460938 56.972656 185.453125 C 54.128906 183.1875 49.089844 184.203125 45.71875 185.191406 C 43.664062 185.792969 41.519531 186.628906 39.960938 187.542969 C 35.863281 187.199219 33.566406 190.910156 30.273438 192.242188 C 27.777344 193.828125 25.003906 196.097656 21.898438 197.203125 C 20.550781 197.679688 18.800781 197.300781 17.972656 198.769531 L 17.972656 199.550781 L 17.578125 199.683594 L 17.710938 200.074219 C 16.875 200.109375 16.558594 200.664062 16.664062 201.640625 L 16.273438 201.769531 L 16.402344 202.160156 L 15.355469 202.160156 C 15.484375 204.730469 17.640625 205.277344 17.972656 207.644531 L 17.582031 207.773438 L 17.714844 208.164062 L 16.925781 208.164062 C 17.449219 209.210938 17.617188 210.609375 19.019531 210.777344 L 19.019531 209.730469 L 19.542969 209.730469 L 19.542969 209.210938 C 20.316406 209.832031 20.269531 211.269531 21.113281 211.820312 C 20.4375 212.101562 19.160156 213.988281 21.113281 213.910156 L 20.984375 214.300781 L 21.378906 214.429688 C 21.324219 215.179688 21.34375 215.855469 22.164062 215.734375 L 22.292969 216.128906 L 22.6875 215.996094 C 22.746094 216.460938 22.421875 217.304688 23.210938 217.042969 L 23.339844 217.433594 L 23.734375 217.300781 L 23.734375 217.5625 C 24.042969 217.863281 24.660156 217.859375 25.304688 217.824219 C 25.507812 218.058594 25.585938 218.414062 25.566406 218.867188 L 25.171875 218.738281 L 25.304688 219.128906 L 24.519531 219.128906 C 24.445312 219.8125 24.613281 220.253906 25.304688 220.175781 C 25.269531 219.707031 25.625 219.621094 25.566406 219.128906 L 25.957031 219.261719 L 25.828125 218.867188 C 26.734375 219.050781 26.765625 217.953125 26.351562 217.5625 L 26.742188 217.433594 L 26.613281 217.042969 L 27.398438 217.042969 L 27.265625 217.519531 L 27.660156 217.824219 C 27.316406 219.125 28.464844 218.9375 28.445312 219.914062 C 28.128906 220.816406 27.238281 221.144531 26.875 222.003906 C 27.394531 222.4375 27.207031 221.980469 27.921875 222.003906 L 28.226562 222.394531 L 28.707031 222.265625 C 28.988281 223.636719 30.128906 224.152344 30.800781 225.136719 L 30.671875 225.527344 L 31.0625 225.65625 C 30.988281 226.078125 31.3125 226.105469 31.324219 226.441406 L 31.847656 226.441406 L 31.71875 226.832031 L 32.109375 226.960938 C 31.894531 227.699219 32.480469 227.640625 32.371094 228.269531 C 33.296875 228.410156 33.015625 227.34375 33.941406 227.484375 C 34.226562 228.640625 33.5 228.78125 33.417969 229.574219 C 34.804688 230.277344 34.503906 232.664062 36.035156 233.226562 C 36.5625 232.535156 36.894531 231.648438 38.128906 231.660156 C 38.320312 230.863281 37.675781 230.894531 37.867188 230.09375 L 38.261719 229.964844 L 38.128906 229.574219 C 39.6875 229.875 40.457031 228.371094 41.792969 227.484375 C 43.113281 226.613281 44.328125 226.109375 45.71875 225.394531 L 46.027344 225.789062 L 46.503906 225.65625 L 46.503906 226.441406 C 44.269531 227.429688 42.460938 228.84375 41.007812 230.617188 C 41.242188 230.820312 41.597656 230.898438 42.054688 230.878906 L 42.375 231.234375 L 42.839844 231.140625 C 41.914062 232.40625 38.996094 232.734375 39.699219 234.796875 C 41.925781 234.578125 42.222656 232.4375 44.410156 232.183594 C 47.242188 229.546875 50.929688 226.523438 54.355469 224.089844 C 55.148438 223.53125 56.847656 223.433594 56.710938 222.003906 C 57.117188 221.863281 56.730469 221.730469 56.453125 221.742188 C 53.578125 222.964844 51.324219 224.808594 48.859375 226.441406 L 48.554688 226.050781 L 48.074219 226.179688 L 48.074219 225.917969 C 47.773438 225.699219 47.375 225.574219 46.765625 225.65625 L 46.898438 225.179688 Z M 13.261719 202.425781 C 11.242188 202.511719 13.125 204.386719 13.261719 202.425781 Z M 14.570312 211.039062 C 17.058594 213.429688 18.640625 216.726562 20.851562 219.394531 C 20.746094 220.023438 21.332031 219.960938 21.113281 220.699219 C 23.894531 223.980469 26.054688 227.515625 28.445312 230.882812 C 30.03125 233.121094 32.28125 235.113281 32.894531 237.929688 C 35.242188 238.546875 34.875 241.871094 37.34375 242.367188 C 37.347656 241.851562 38.058594 242.035156 37.867188 241.324219 C 34.710938 236.726562 30.324219 231.09375 26.875 225.921875 C 26.679688 225.117188 27.59375 225.417969 27.398438 224.617188 C 26.589844 224.421875 27.078125 225.515625 26.089844 225.136719 C 21.367188 217.839844 16.300781 210.882812 11.429688 203.730469 L 10.644531 203.730469 C 11.195312 206.917969 13.910156 207.957031 14.570312 211.039062 Z M 129.742188 208.167969 C 130.761719 208.535156 133.042969 208.71875 133.144531 207.382812 C 132.640625 206.453125 129.335938 206.53125 129.742188 208.167969 Z M 121.625 210.257812 C 120.148438 210.546875 119.054688 209.835938 117.699219 210.515625 C 118.660156 212.597656 123.507812 211.402344 124.765625 210.515625 C 126.328125 210.332031 128.003906 210.265625 128.695312 209.210938 C 127.148438 206.929688 124.21875 209.746094 121.625 210.257812 Z M 103.042969 210.777344 C 103.023438 211.707031 105.902344 211.5 105.921875 210.777344 C 105.386719 210.375 103.578125 210.375 103.042969 210.777344 Z M 123.980469 215.476562 C 124.226562 213.894531 126.800781 214.636719 128.433594 214.433594 C 129.050781 214.351562 128.917969 213.527344 129.742188 213.648438 C 132.601562 213.765625 134.007812 212.074219 136.546875 212.605469 C 137.035156 212.050781 138.0625 212.03125 137.855469 210.777344 C 135.160156 210.378906 133.007812 212.710938 129.476562 212.34375 C 129.066406 212.71875 129.273438 213.707031 128.429688 213.648438 C 126.253906 213.257812 124.5625 213.433594 123.457031 214.695312 C 122.109375 214.136719 119.226562 214.296875 119.007812 215.738281 L 118.617188 215.609375 L 118.484375 216 C 118.023438 216.058594 117.175781 215.734375 117.4375 216.523438 C 118.484375 216 118.878906 216.128906 118.878906 216.128906 L 119.007812 215.738281 L 123.460938 215.738281 L 123.328125 216.21875 L 123.722656 216.523438 C 122.824219 217.003906 121.828125 216.988281 120.84375 216.78125 C 120.019531 217.007812 119.738281 217.769531 118.75 217.828125 C 117.316406 218.023438 115.582031 217.816406 114.296875 218.089844 C 112.460938 218.476562 110.679688 219.589844 108.800781 219.917969 C 107.792969 220.089844 106.691406 219.75 105.660156 219.917969 C 103.808594 220.210938 101.914062 220.859375 99.902344 221.222656 C 97.523438 221.648438 95.335938 222.515625 92.574219 222.003906 C 92.199219 222.761719 91.382812 223.082031 90.480469 223.308594 L 90.175781 222.917969 L 89.695312 223.050781 C 90.042969 221.109375 87.597656 220.296875 86.816406 221.742188 C 86.699219 222.902344 87.523438 223.125 87.863281 223.832031 C 88.628906 223.902344 88.667969 223.242188 89.433594 223.308594 L 89.738281 223.703125 L 90.21875 223.570312 L 90.21875 224.09375 C 91.851562 226.0625 94.476562 224.050781 96.5 223.570312 C 98.832031 223.019531 101.503906 222.910156 103.828125 222.265625 C 104.527344 222.070312 104.957031 221.617188 105.660156 221.484375 C 109.191406 220.800781 113.125 220.171875 116.652344 219.394531 C 118.832031 218.914062 120.164062 218.28125 121.890625 217.828125 C 122.460938 217.675781 123.121094 217.941406 123.722656 217.828125 C 124.328125 217.714844 124.976562 217.15625 125.554688 217.042969 C 128.363281 216.492188 131.128906 216.179688 133.929688 215.738281 C 134.828125 214.722656 137.289062 215.257812 137.855469 213.910156 C 135.84375 213.476562 133.953125 215.410156 130.789062 214.695312 C 129.964844 214.917969 129.683594 215.679688 128.695312 215.738281 L 124.769531 215.738281 L 124.460938 215.347656 Z M 98.59375 211.5625 C 98.488281 211.933594 98.277344 212 98.59375 212.34375 C 99.648438 213.074219 100.8125 212.054688 101.996094 212.082031 C 102.105469 210.746094 99.257812 211.292969 98.59375 211.5625 Z M 102.257812 213.910156 C 101.546875 215.691406 98.167969 213.359375 98.332031 215.738281 C 99.699219 215.703125 102.578125 216.421875 102.78125 214.171875 C 102.722656 213.96875 102.5625 213.867188 102.257812 213.910156 Z M 67.445312 217.566406 C 68.828125 218.570312 71.851562 217.46875 72.679688 216.261719 C 71.128906 214.933594 68.445312 216.640625 67.445312 217.566406 Z M 113.511719 216 C 113.5 216.359375 113.636719 216.574219 113.773438 216.785156 C 114.269531 216.84375 114.351562 216.488281 114.820312 216.523438 C 115.003906 215.617188 113.902344 215.585938 113.511719 216 Z M 107.230469 217.042969 C 107.597656 218.222656 110.609375 218.050781 111.15625 217.042969 C 109.875 216.460938 108.292969 217.058594 107.230469 217.042969 Z M 105.136719 218.609375 L 106.183594 218.609375 C 106.523438 217.273438 104.902344 217.394531 105.136719 218.609375 Z M 97.023438 219.132812 C 97.617188 221.214844 103.652344 219.449219 101.996094 218.347656 C 100.636719 218.90625 98.578125 218.765625 97.023438 219.132812 Z M 84.980469 222.265625 C 84.652344 220.332031 83.414062 219.300781 81.316406 219.132812 C 81.511719 221.203125 82.851562 222.125 84.980469 222.265625 Z M 61.164062 223.570312 L 62.734375 223.570312 C 63.347656 222.269531 65.847656 222.847656 65.875 220.960938 C 65.757812 220.726562 65.644531 220.492188 65.351562 220.4375 C 64.078125 221.519531 61.734375 221.53125 61.160156 223.308594 L 60.769531 223.179688 L 60.898438 223.570312 L 59.851562 223.570312 C 57.9375 224.441406 56.675781 225.972656 54.355469 226.441406 C 53.183594 227.460938 52.003906 228.582031 50.691406 229.574219 C 49.585938 230.414062 47.335938 230.863281 47.550781 232.96875 C 49.570312 232.851562 50.613281 231.066406 52 230.097656 C 53.652344 228.945312 55.621094 228.269531 56.972656 226.703125 C 58.882812 226.34375 59.886719 225.085938 60.898438 223.832031 L 61.292969 223.964844 Z M 93.097656 220.4375 C 92.859375 220.203125 92.351562 220.660156 92.3125 220.699219 C 91.480469 221.527344 93.492188 220.835938 93.097656 220.4375 Z M 79.484375 223.570312 C 80.773438 223.613281 81.691406 222.882812 81.054688 221.742188 C 79.738281 221.5625 79.328125 222.285156 79.484375 223.570312 Z M 73.464844 222.789062 C 73.660156 223.636719 74.933594 223.410156 75.558594 223.832031 C 76.359375 227.617188 82.34375 230.285156 86.027344 227.226562 C 85.5625 225.988281 86.191406 225.855469 86.289062 224.613281 C 83.964844 225.257812 82.078125 226.980469 79.222656 225.660156 C 78.4375 224.703125 77.914062 223.480469 77.390625 222.265625 C 76.109375 222.375 73.835938 221.253906 73.464844 222.789062 Z M 66.398438 226.964844 C 65.804688 227.765625 64.746094 228.101562 64.042969 228.792969 C 56.542969 231.933594 49.992188 236.015625 43.101562 239.757812 C 41.238281 240.25 39.714844 241.082031 38.914062 242.628906 C 39.847656 243.894531 40.929688 242.648438 41.792969 242.367188 C 44.195312 241.589844 45.570312 240.742188 47.289062 239.757812 C 50.136719 238.128906 52.675781 236.722656 55.402344 235.320312 C 57.152344 234.417969 59.074219 233.613281 60.898438 232.707031 C 62.789062 231.769531 64.558594 230.46875 66.398438 229.835938 C 68.105469 229.25 68.703125 228.714844 70.0625 228.007812 C 71.042969 227.5 72.292969 227.457031 72.941406 226.441406 C 73.054688 225.546875 72.835938 224.980469 72.679688 224.355469 C 70.09375 224.734375 69.34375 226.945312 66.398438 226.964844 Z M 61.6875 226.441406 C 60.941406 227.875 58.617188 227.734375 58.285156 229.574219 C 59.820312 229.683594 62.257812 227.765625 63.257812 226.703125 C 62.945312 226.402344 62.332031 226.410156 61.6875 226.441406 Z M 29.230469 226.703125 C 29.019531 228.285156 30.429688 226.878906 29.230469 226.703125 Z M 37.34375 237.410156 C 37.75 237.027344 37.574219 236.074219 37.605469 235.320312 C 37.109375 235.378906 37.027344 235.023438 36.558594 235.058594 C 35.726562 235.632812 36.171875 237.34375 37.34375 237.410156 Z M 37.34375 237.410156 " fill-opacity="1" fill-rule="evenodd"/></g><path fill="#003f88" d="M 42.839844 131.148438 L 42.578125 131.148438 C 41.671875 130.625 42.5 130.179688 42.578125 129.320312 C 42.300781 126.851562 42.660156 122.933594 42.839844 119.921875 C 42.917969 118.589844 42.1875 116.953125 43.625 116.527344 C 43.859375 116.730469 44.214844 116.808594 44.671875 116.789062 C 44.988281 119.308594 43.953125 123.523438 43.886719 126.96875 C 43.847656 128.878906 44.722656 130.8125 42.839844 131.410156 Z M 42.839844 131.148438 " fill-opacity="1" fill-rule="evenodd"/><path fill="#003f88" d="M 48.992188 126.839844 L 48.597656 126.972656 C 48.011719 126.859375 48.492188 125.683594 48.335938 125.144531 C 50.445312 123.679688 48.070312 117.742188 51.476562 117.570312 C 51.777344 120.675781 50.15625 124.070312 49.382812 126.972656 Z M 48.992188 126.839844 " fill-opacity="1" fill-rule="evenodd"/><path fill="#003f88" d="M 136.152344 123.011719 L 136.546875 123.316406 C 136.097656 124.972656 133.375 124.269531 133.40625 122.535156 C 134.441406 122.121094 134.945312 123.136719 136.285156 122.535156 Z M 136.152344 123.011719 " fill-opacity="1" fill-rule="evenodd"/><path fill="#003f88" d="M 76.789062 133.160156 L 77.128906 133.5 C 76.886719 134.820312 76.722656 136.222656 75.820312 136.894531 C 76.464844 137.160156 77.167969 139.125 76.082031 139.503906 L 75.953125 139.113281 L 75.558594 138.980469 C 74.667969 138.40625 74.472656 137.667969 74.511719 136.632812 C 74.535156 136.101562 75.25 136.15625 75.558594 135.066406 C 75.839844 134.074219 75.410156 132.734375 76.605469 132.714844 Z M 76.789062 133.160156 " fill-opacity="1" fill-rule="evenodd"/><path fill="#003f88" d="M 74.902344 140.15625 L 75.035156 140.808594 L 74.773438 140.808594 L 74.773438 140.15625 L 74.25 139.765625 C 74.257812 139.511719 74.570312 139.5625 74.773438 139.503906 Z M 74.902344 140.15625 " fill-opacity="1" fill-rule="evenodd"/><path fill="#003f88" d="M 77.261719 125.273438 L 77.128906 125.667969 C 75.921875 125.648438 75.703125 124.648438 75.820312 123.316406 L 76.214844 123.1875 L 76.082031 122.792969 C 77.207031 123.066406 77.75 123.914062 77.652344 125.40625 Z M 77.261719 125.273438 " fill-opacity="1" fill-rule="evenodd"/><path fill="#003f88" d="M 73.804688 124.019531 L 73.988281 123.578125 C 74.6875 124.269531 74.804688 125.546875 75.558594 126.1875 C 75.222656 126.546875 74.421875 126.445312 73.726562 126.449219 C 73.320312 126.070312 73.496094 125.113281 73.464844 124.359375 Z M 73.804688 124.019531 " fill-opacity="1" fill-rule="evenodd"/><path fill="#003f88" d="M 78.777344 122.976562 L 78.4375 123.316406 C 77.660156 123.625 77.3125 122.214844 77.914062 122.011719 C 78.523438 122.097656 79.042969 122.277344 79.222656 122.792969 Z M 78.777344 122.976562 " fill-opacity="1" fill-rule="evenodd"/><path fill="#003f88" d="M 45.066406 150.597656 L 45.457031 150.730469 C 45.453125 151.53125 43.5625 151.949219 43.363281 150.988281 C 43.601562 150.355469 44.414062 150.296875 45.195312 150.207031 Z M 45.066406 150.597656 " fill-opacity="1" fill-rule="evenodd"/><path fill="#003f88" d="M 21.507812 214.042969 L 21.113281 213.910156 C 20.550781 212.394531 22.773438 212.101562 22.425781 213.648438 L 22.03125 213.953125 L 22.160156 214.433594 L 21.375 214.433594 Z M 21.507812 214.042969 " fill-opacity="1" fill-rule="evenodd"/><path fill="#003f88" d="M 22.554688 214.128906 L 22.421875 213.648438 C 23.570312 213.925781 23.285156 212.765625 24.257812 212.867188 C 23.792969 214.71875 26.136719 213.773438 25.566406 215.738281 L 25.171875 215.609375 L 25.042969 216 L 24.519531 216 L 24.648438 215.347656 L 23.996094 215.214844 C 24.035156 214.113281 23.582031 215.210938 23.472656 215.476562 L 23.078125 215.609375 L 23.207031 216 L 22.683594 216 L 22.816406 215.347656 L 22.160156 215.476562 L 22.160156 214.433594 Z M 22.554688 214.128906 " fill-opacity="1" fill-rule="evenodd"/><path fill="#003f88" d="M 25.957031 216.390625 L 25.828125 216 C 26.269531 215.902344 26.320312 216.203125 26.351562 216.523438 L 25.957031 216.390625 L 25.828125 216.78125 C 25.570312 216.773438 25.625 216.464844 25.566406 216.261719 Z M 25.957031 216.390625 " fill-opacity="1" fill-rule="evenodd"/><path fill="#003f88" d="M 26.21875 216.914062 L 26.351562 216.523438 C 26.605469 216.53125 26.550781 216.839844 26.613281 217.042969 L 26.21875 216.914062 L 26.089844 217.304688 C 25.832031 217.296875 25.886719 216.984375 25.828125 216.78125 Z M 26.21875 216.914062 " fill-opacity="1" fill-rule="evenodd"/><path fill="#003f88" d="M 23.730469 216.324219 L 23.207031 216.261719 L 23.207031 216 L 23.730469 216.128906 L 24.257812 216.261719 C 24.296875 216.5625 24.199219 216.722656 23.996094 216.78125 Z M 23.730469 216.324219 " fill-opacity="1" fill-rule="evenodd"/><path stroke-linecap="round" transform="matrix(0.880282, 0, 0, 0.878034, 8.550935, 115.111267)" fill="none" stroke-linejoin="miter" d="M 29.984014 9.789786 C 29.819826 9.211434 29.908576 8.601941 29.881951 8.005793 " stroke="#000000" stroke-width="0.919" stroke-opacity="1" stroke-miterlimit="4"/><path stroke-linecap="round" transform="matrix(0.880282, 0, 0, 0.878034, 8.550935, 115.111267)" fill="none" stroke-linejoin="miter" d="M 38.805764 19.305898 C 38.783576 18.981131 38.827951 18.571836 38.952201 18.264865 " stroke="#000000" stroke-width="0.441" stroke-opacity="1" stroke-miterlimit="4"/><path stroke-linecap="round" transform="matrix(0.880282, 0, 0, 0.878034, 8.550935, 115.111267)" fill="none" stroke-linejoin="miter" d="M 43.460702 22.57581 C 44.667702 19.603971 44.632202 16.351855 45.941264 13.357772 " stroke="#000000" stroke-width="1.138" stroke-opacity="1" stroke-miterlimit="4"/><path stroke-linecap="round" transform="matrix(0.880282, 0, 0, 0.878034, 8.550935, 115.111267)" fill="none" stroke-linejoin="miter" d="M 45.941264 24.061729 C 46.256327 22.913923 45.515264 21.543674 46.771077 20.733982 " stroke="#000000" stroke-width="1.25" stroke-opacity="1" stroke-miterlimit="4"/><path stroke-linecap="round" transform="matrix(0.880282, 0, 0, 0.878034, 8.550935, 115.111267)" fill="none" stroke-linejoin="miter" d="M 93.515703 109.404211 C 93.817453 109.257399 94.274516 109.13728 94.704953 109.003814 " stroke="#000000" stroke-width="0.885" stroke-opacity="1" stroke-miterlimit="4"/><path stroke-linecap="round" transform="matrix(0.880282, 0, 0, 0.878034, 8.550935, 115.111267)" fill="none" stroke-linejoin="miter" d="M 137.819705 101.075945 C 138.085955 100.733383 138.418767 100.573224 138.711642 100.381923 " stroke="#000000" stroke-width="0.801" stroke-opacity="1" stroke-miterlimit="4"/><path stroke-linecap="round" transform="matrix(0.880282, 0, 0, 0.878034, 8.550935, 115.111267)" fill="none" stroke-linejoin="miter" d="M 135.143892 98.993879 C 135.268142 98.766987 135.458954 98.464464 135.738517 98.104107 " stroke="#000000" stroke-width="0.373" stroke-opacity="1" stroke-miterlimit="4"/><path stroke-linecap="round" transform="matrix(0.880282, 0, 0, 0.878034, 8.550935, 115.111267)" fill="none" stroke-linejoin="miter" d="M 155.361143 27.33609 C 155.214705 26.966835 154.97508 26.695454 154.766518 26.441869 " stroke="#000000" stroke-width="0.595" stroke-opacity="1" stroke-miterlimit="4"/><path stroke-linecap="round" transform="matrix(0.880282, 0, 0, 0.878034, 8.550935, 115.111267)" fill="none" stroke-linejoin="miter" d="M 144.955205 8.997889 C 146.521642 8.726509 148.150205 9.07352 149.712205 8.802139 " stroke="#000000" stroke-width="0.917" stroke-opacity="1" stroke-miterlimit="4"/><path stroke-linecap="round" transform="matrix(0.880282, 0, 0, 0.878034, 8.550935, 115.111267)" fill="none" stroke-linejoin="miter" d="M 77.163515 64.604191 C 76.963828 64.546355 76.76414 64.524111 76.56889 64.501867 " stroke="#000000" stroke-width="0.924" stroke-opacity="1" stroke-miterlimit="4"/><path stroke-linecap="round" transform="matrix(0.880282, 0, 0, 0.878034, 8.550935, 115.111267)" fill="none" stroke-linejoin="miter" d="M 78.055453 50.132049 C 77.855765 50.185435 77.656078 50.20768 77.460828 50.229924 " stroke="#000000" stroke-width="0.924" stroke-opacity="1" stroke-miterlimit="4"/><path stroke-linecap="round" transform="matrix(0.880282, 0, 0, 0.878034, 8.550935, 115.111267)" fill="none" stroke-linejoin="miter" d="M 36.808889 25.507609 C 36.649139 25.240677 36.467201 24.947052 36.325201 24.657876 " stroke="#000000" stroke-width="0.908" stroke-opacity="1" stroke-miterlimit="4"/><path stroke-linecap="round" transform="matrix(0.880282, 0, 0, 0.878034, 8.550935, 115.111267)" fill="none" stroke-linejoin="miter" d="M 73.933015 29.204611 C 74.425578 29.09339 74.81164 28.78197 75.228765 28.523936 " stroke="#000000" stroke-width="1.174" stroke-opacity="1" stroke-miterlimit="4"/><path stroke-linecap="round" transform="matrix(0.880282, 0, 0, 0.878034, 8.550935, 115.111267)" fill="none" stroke-linejoin="miter" d="M 75.375203 28.523936 C 75.921015 28.359328 76.28489 27.807669 76.564453 27.33609 " stroke="#000000" stroke-width="1.163" stroke-opacity="1" stroke-miterlimit="4"/><path stroke-linecap="round" transform="matrix(0.880282, 0, 0, 0.878034, 8.550935, 115.111267)" fill="none" stroke-linejoin="miter" d="M 77.518515 20.556028 C 77.82914 17.851121 79.644078 15.51102 79.306828 12.721585 " stroke="#000000" stroke-width="1.26" stroke-opacity="1" stroke-miterlimit="4"/><path stroke-linecap="round" transform="matrix(0.880282, 0, 0, 0.878034, 8.550935, 115.111267)" fill="none" stroke-linejoin="miter" d="M 79.306828 12.721585 C 78.849765 12.396818 78.348328 12.067603 78.055453 11.573779 " stroke="#000000" stroke-width="0.967" stroke-opacity="1" stroke-miterlimit="4"/><path stroke-linecap="round" transform="matrix(0.880282, 0, 0, 0.878034, 8.550935, 115.111267)" fill="none" stroke-linejoin="miter" d="M 74.128265 10.145695 C 73.023328 9.553997 73.436015 8.352804 73.69339 7.409646 " stroke="#000000" stroke-width="1.119" stroke-opacity="1" stroke-miterlimit="4"/><path stroke-linecap="round" transform="matrix(0.880282, 0, 0, 0.878034, 8.550935, 115.111267)" fill="none" stroke-linejoin="miter" d="M 75.676953 8.005793 C 76.08964 8.406191 76.253828 9.024582 76.866203 9.193639 " stroke="#000000" stroke-width="0.556" stroke-opacity="1" stroke-miterlimit="4"/><path stroke-linecap="round" transform="matrix(0.880282, 0, 0, 0.878034, 8.550935, 115.111267)" fill="none" stroke-linejoin="miter" d="M 79.306828 12.721585 C 80.478328 12.103193 80.74014 10.670661 80.433953 9.491713 " stroke="#000000" stroke-width="1.136" stroke-opacity="1" stroke-miterlimit="4"/><path stroke-linecap="round" transform="matrix(0.880282, 0, 0, 0.878034, 8.550935, 115.111267)" fill="none" stroke-linejoin="miter" d="M 80.433953 9.491713 C 80.229828 9.353798 80.01239 9.171395 79.777203 8.957849 " stroke="#000000" stroke-width="1.072" stroke-opacity="1" stroke-miterlimit="4"/><path stroke-linecap="round" transform="matrix(0.880282, 0, 0, 0.878034, 8.550935, 115.111267)" fill="none" stroke-linejoin="miter" d="M 80.433953 9.491713 C 81.152828 9.144702 81.59214 8.508515 81.720828 7.70772 " stroke="#000000" stroke-width="0.791" stroke-opacity="1" stroke-miterlimit="4"/><path stroke-linecap="round" transform="matrix(0.880282, 0, 0, 0.878034, 8.550935, 115.111267)" fill="none" stroke-linejoin="miter" d="M 156.257518 24.858075 L 156.852143 25.053825 " stroke="#000000" stroke-width="0.94" stroke-opacity="1" stroke-miterlimit="4"/><path stroke-linecap="round" transform="matrix(0.880282, 0, 0, 0.878034, 8.550935, 115.111267)" fill="none" stroke-linejoin="miter" d="M 42.519952 73.871166 L 42.533264 74.004632 C 42.595389 74.1292 43.101264 74.24487 43.562764 74.316052 " stroke="#000000" stroke-width="0.751" stroke-opacity="1" stroke-miterlimit="4"/><path stroke-linecap="round" transform="matrix(0.880282, 0, 0, 0.878034, 8.550935, 115.111267)" fill="none" stroke-linejoin="miter" d="M 41.481576 40.415739 C 41.787764 40.21554 42.005202 40.122114 42.222639 39.970853 " stroke="#000000" stroke-width="0.47" stroke-opacity="1" stroke-miterlimit="4"/><path stroke-linecap="round" transform="matrix(0.880282, 0, 0, 0.878034, 8.550935, 115.111267)" fill="none" stroke-linejoin="miter" d="M 157.74408 35.06376 C 157.344705 35.174982 156.949768 35.21947 156.55483 35.361834 " stroke="#000000" stroke-width="0.638" stroke-opacity="1" stroke-miterlimit="4"/><path stroke-linecap="round" transform="matrix(0.880282, 0, 0, 0.878034, 8.550935, 115.111267)" fill="none" stroke-linejoin="miter" d="M 50.698264 47.849784 C 50.884639 47.226943 50.884639 46.559614 50.995577 45.918979 " stroke="#000000" stroke-width="0.734" stroke-opacity="1" stroke-miterlimit="4"/><path stroke-linecap="round" transform="matrix(0.880282, 0, 0, 0.878034, 8.550935, 115.111267)" fill="none" stroke-linejoin="miter" d="M 17.443638 108.15853 C 19.089951 110.694381 21.765763 112.95885 22.497951 115.890649 " stroke="#000000" stroke-width="1.254" stroke-opacity="1" stroke-miterlimit="4"/><path stroke-linecap="round" transform="matrix(0.880282, 0, 0, 0.878034, 8.550935, 115.111267)" fill="none" stroke-linejoin="miter" d="M 22.497951 115.895098 C 23.580701 116.606915 24.534763 117.941573 24.827638 119.213947 " stroke="#000000" stroke-width="1.267" stroke-opacity="1" stroke-miterlimit="4"/><path stroke-linecap="round" transform="matrix(0.880282, 0, 0, 0.878034, 8.550935, 115.111267)" fill="none" stroke-linejoin="miter" d="M 24.827638 119.209499 C 25.839389 120.263878 26.979826 121.384991 27.503451 122.777484 " stroke="#000000" stroke-width="1.256" stroke-opacity="1" stroke-miterlimit="4"/><path stroke-linecap="round" transform="matrix(0.880282, 0, 0, 0.878034, 8.550935, 115.111267)" fill="none" stroke-linejoin="miter" d="M 27.503451 122.781933 C 30.001764 125.055301 30.880389 128.925809 33.747014 130.807677 " stroke="#000000" stroke-width="1.287" stroke-opacity="1" stroke-miterlimit="4"/><path stroke-linecap="round" transform="matrix(0.880282, 0, 0, 0.878034, 8.550935, 115.111267)" fill="none" stroke-linejoin="miter" d="M 42.568764 126.051845 C 42.883827 125.687039 43.127889 125.593613 43.562764 125.357823 " stroke="#000000" stroke-width="0.867" stroke-opacity="1" stroke-miterlimit="4"/><path stroke-linecap="round" transform="matrix(0.880282, 0, 0, 0.878034, 8.550935, 115.111267)" fill="none" stroke-linejoin="miter" d="M 10.259326 105.538152 C 11.058076 106.214378 11.781388 106.98848 12.486951 107.767031 " stroke="#000000" stroke-width="0.841" stroke-opacity="1" stroke-miterlimit="4"/><path stroke-linecap="round" transform="matrix(0.880282, 0, 0, 0.878034, 8.550935, 115.111267)" fill="none" stroke-linejoin="miter" d="M 15.313638 112.571799 L 15.908263 112.771998 " stroke="#000000" stroke-width="0.94" stroke-opacity="1" stroke-miterlimit="4"/><path stroke-linecap="round" transform="matrix(0.880282, 0, 0, 0.878034, 8.550935, 115.111267)" fill="none" stroke-linejoin="miter" d="M 18.881388 114.458116 C 19.271888 114.685008 19.449388 114.98753 19.773326 115.347888 " stroke="#000000" stroke-width="0.441" stroke-opacity="1" stroke-miterlimit="4"/><path stroke-linecap="round" transform="matrix(0.880282, 0, 0, 0.878034, 8.550935, 115.111267)" fill="none" stroke-linejoin="miter" d="M 19.773326 115.347888 L 20.070638 115.944035 " stroke="#000000" stroke-width="0.665" stroke-opacity="1" stroke-miterlimit="4"/><path stroke-linecap="round" transform="matrix(0.880282, 0, 0, 0.878034, 8.550935, 115.111267)" fill="none" stroke-linejoin="miter" d="M 17.443638 108.162979 C 16.955513 108.563377 16.689263 109.155075 16.400826 109.697836 " stroke="#000000" stroke-width="0.793" stroke-opacity="1" stroke-miterlimit="4"/><path stroke-linecap="round" transform="matrix(0.880282, 0, 0, 0.878034, 8.550935, 115.111267)" fill="none" stroke-linejoin="miter" d="M 17.443638 108.15853 C 15.513326 104.02109 13.046076 100.017116 10.259326 96.315665 " stroke="#000000" stroke-width="1.234" stroke-opacity="1" stroke-miterlimit="4"/><path stroke-linecap="round" transform="matrix(0.880282, 0, 0, 0.878034, 8.550935, 115.111267)" fill="none" stroke-linejoin="miter" d="M 12.424826 103.70967 C 10.782951 102.375012 10.543326 99.839162 8.772763 98.695805 " stroke="#000000" stroke-width="0.695" stroke-opacity="1" stroke-miterlimit="4"/><path stroke-linecap="round" transform="matrix(0.880282, 0, 0, 0.878034, 8.550935, 115.111267)" fill="none" stroke-linejoin="miter" d="M 125.035267 114.458116 L 125.332579 115.049814 " stroke="#000000" stroke-width="0.665" stroke-opacity="1" stroke-miterlimit="4"/><path stroke-linecap="round" transform="matrix(0.880282, 0, 0, 0.878034, 8.550935, 115.111267)" fill="none" stroke-linejoin="miter" d="M 131.673767 114.160042 C 131.332079 114.680559 130.861704 114.991979 130.386892 115.152138 " stroke="#000000" stroke-width="0.849" stroke-opacity="1" stroke-miterlimit="4"/><path stroke-linecap="round" transform="matrix(0.880282, 0, 0, 0.878034, 8.550935, 115.111267)" fill="none" stroke-linejoin="miter" d="M 15.610951 115.049814 C 15.810638 114.689457 16.005888 114.422525 16.205576 114.160042 " stroke="#000000" stroke-width="0.758" stroke-opacity="1" stroke-miterlimit="4"/><path stroke-linecap="round" transform="matrix(0.880282, 0, 0, 0.878034, 8.550935, 115.111267)" fill="none" stroke-linejoin="miter" d="M 14.719013 112.674123 L 14.124388 112.972197 " stroke="#000000" stroke-width="0.665" stroke-opacity="1" stroke-miterlimit="4"/><path stroke-linecap="round" transform="matrix(0.880282, 0, 0, 0.878034, 8.550935, 115.111267)" fill="none" stroke-linejoin="miter" d="M 17.275013 114.934144 C 17.572326 114.787332 17.976138 114.431423 18.286763 114.160042 " stroke="#000000" stroke-width="0.986" stroke-opacity="1" stroke-miterlimit="4"/><path stroke-linecap="round" transform="matrix(0.880282, 0, 0, 0.878034, 8.550935, 115.111267)" fill="none" stroke-linejoin="miter" d="M 16.800201 116.540183 C 16.955513 116.024115 17.133013 115.516945 17.243951 115.272257 " stroke="#000000" stroke-width="0.814" stroke-opacity="1" stroke-miterlimit="4"/><path stroke-linecap="round" transform="matrix(0.880282, 0, 0, 0.878034, 8.550935, 115.111267)" fill="none" stroke-linejoin="miter" d="M 17.275013 114.934144 C 16.977701 114.720599 16.755826 114.604928 16.502888 114.458116 " stroke="#000000" stroke-width="0.758" stroke-opacity="1" stroke-miterlimit="4"/><path stroke-linecap="round" transform="matrix(0.880282, 0, 0, 0.878034, 8.550935, 115.111267)" fill="none" stroke-linejoin="miter" d="M 18.881388 118.026102 C 19.178701 118.212954 19.476013 118.386459 19.773326 118.6178 " stroke="#000000" stroke-width="0.384" stroke-opacity="1" stroke-miterlimit="4"/><path stroke-linecap="round" transform="matrix(0.880282, 0, 0, 0.878034, 8.550935, 115.111267)" fill="none" stroke-linejoin="miter" d="M 20.665263 116.540183 C 20.425638 116.384472 20.248138 116.166478 20.070638 115.944035 " stroke="#000000" stroke-width="0.665" stroke-opacity="1" stroke-miterlimit="4"/><path stroke-linecap="round" transform="matrix(0.880282, 0, 0, 0.878034, 8.550935, 115.111267)" fill="none" stroke-linejoin="miter" d="M 17.275013 114.934144 L 17.243951 115.049814 " stroke="#000000" stroke-width="1.226" stroke-opacity="1" stroke-miterlimit="4"/><path stroke-linecap="round" transform="matrix(0.880282, 0, 0, 0.878034, 8.550935, 115.111267)" fill="none" stroke-linejoin="miter" d="M 22.497951 115.895098 C 22.151826 116.210967 21.792388 116.397819 21.259888 116.638058 " stroke="#000000" stroke-width="0.964" stroke-opacity="1" stroke-miterlimit="4"/><path stroke-linecap="round" transform="matrix(0.880282, 0, 0, 0.878034, 8.550935, 115.111267)" fill="none" stroke-linejoin="miter" d="M 26.314201 127.24414 C 26.536076 127.119572 26.762389 126.93272 26.993139 126.688032 " stroke="#000000" stroke-width="0.814" stroke-opacity="1" stroke-miterlimit="4"/><path stroke-linecap="round" transform="matrix(0.880282, 0, 0, 0.878034, 8.550935, 115.111267)" fill="none" stroke-linejoin="miter" d="M 27.503451 122.781933 C 26.274264 123.511546 26.087889 124.846204 25.124951 125.758221 " stroke="#000000" stroke-width="0.739" stroke-opacity="1" stroke-miterlimit="4"/><path stroke-linecap="round" transform="matrix(0.880282, 0, 0, 0.878034, 8.550935, 115.111267)" fill="none" stroke-linejoin="miter" d="M 24.827638 119.209499 C 23.935701 120.21939 23.341076 121.300463 22.351513 122.185786 " stroke="#000000" stroke-width="0.907" stroke-opacity="1" stroke-miterlimit="4"/><path stroke-linecap="round" transform="matrix(0.880282, 0, 0, 0.878034, 8.550935, 115.111267)" fill="none" stroke-linejoin="miter" d="M 92.228828 123.676154 C 92.397453 123.37808 92.579391 123.080007 92.721391 122.781933 " stroke="#000000" stroke-width="0.908" stroke-opacity="1" stroke-miterlimit="4"/><path stroke-linecap="round" transform="matrix(0.880282, 0, 0, 0.878034, 8.550935, 115.111267)" fill="none" stroke-linejoin="miter" d="M 45.444264 126.349919 C 43.225514 128.427537 40.776014 130.309404 38.419701 132.253556 " stroke="#000000" stroke-width="0.83" stroke-opacity="1" stroke-miterlimit="4"/><path stroke-linecap="round" transform="matrix(0.880282, 0, 0, 0.878034, 8.550935, 115.111267)" fill="none" stroke-linejoin="miter" d="M 59.914952 123.969779 C 59.72414 123.676154 59.551077 123.37808 59.320327 123.080007 " stroke="#000000" stroke-width="0.384" stroke-opacity="1" stroke-miterlimit="4"/></svg>